<svg width="20" height="20" viewBox="0 0 20 20" fill="none" xmlns="http://www.w3.org/2000/svg">
<mask id="mask0_971_8018" style="mask-type:alpha" maskUnits="userSpaceOnUse" x="0" y="0" width="20" height="20">
<rect width="20" height="20" fill="#D9D9D9"/>
</mask>
<g mask="url(#mask0_971_8018)">
<path d="M4.5 14.9053V8.44903C4.5 8.24017 4.54693 8.04233 4.6408 7.85549C4.73479 7.66854 4.86459 7.5146 5.0302 7.3937L9.2047 4.26383C9.43631 4.08794 9.70104 4 9.9989 4C10.2968 4 10.5622 4.08794 10.7953 4.26383L14.9698 7.3937C15.1354 7.5146 15.2652 7.66854 15.3592 7.85549C15.4531 8.04233 15.5 8.24017 15.5 8.44903V14.9053C15.5 15.2038 15.3916 15.4608 15.1749 15.6765C14.9583 15.8922 14.6999 16 14.4 16H12.059C11.8712 16 11.7137 15.9367 11.5867 15.8102C11.4596 15.6839 11.3961 15.5272 11.3961 15.3402V11.7754C11.3961 11.5886 11.3326 11.4319 11.2056 11.3054C11.0786 11.179 10.9212 11.1158 10.7333 11.1158H9.26667C9.07881 11.1158 8.92139 11.179 8.7944 11.3054C8.66741 11.4319 8.60392 11.5886 8.60392 11.7754V15.3402C8.60392 15.5272 8.54036 15.6839 8.41325 15.8102C8.28626 15.9367 8.12884 16 7.94098 16H5.6C5.30007 16 5.04175 15.8922 4.82505 15.6765C4.60835 15.4608 4.5 15.2038 4.5 14.9053Z" fill="#868C98"/>
</g>
</svg>
