<svg width="20" height="20" viewBox="0 0 20 20" fill="none" xmlns="http://www.w3.org/2000/svg">
<g id="tab_close">
<mask id="mask0_971_8036" style="mask-type:alpha" maskUnits="userSpaceOnUse" x="0" y="0" width="20" height="20">
<rect id="Bounding box" width="20" height="20" fill="#D9D9D9"/>
</mask>
<g mask="url(#mask0_971_8036)">
<path id="tab_close_2" d="M7.2 14.2C6.815 14.2 6.48542 14.0629 6.21125 13.7887C5.93708 13.5146 5.8 13.185 5.8 12.8V4.4C5.8 4.015 5.93708 3.68542 6.21125 3.41125C6.48542 3.13708 6.815 3 7.2 3H15.6C15.985 3 16.3146 3.13708 16.5887 3.41125C16.8629 3.68542 17 4.015 17 4.4V12.8C17 13.185 16.8629 13.5146 16.5887 13.7887C16.3146 14.0629 15.985 14.2 15.6 14.2H7.2ZM4.4 17C4.015 17 3.68542 16.8629 3.41125 16.5887C3.13708 16.3146 3 15.985 3 15.6V6.5C3 6.30167 3.06708 6.13542 3.20125 6.00125C3.33542 5.86708 3.50167 5.8 3.7 5.8C3.89833 5.8 4.06458 5.86708 4.19875 6.00125C4.33292 6.13542 4.4 6.30167 4.4 6.5V15.6H13.5C13.6983 15.6 13.8646 15.6671 13.9988 15.8013C14.1329 15.9354 14.2 16.1017 14.2 16.3C14.2 16.4983 14.1329 16.6646 13.9988 16.7987C13.8646 16.9329 13.6983 17 13.5 17H4.4ZM10.42 10.56L11.4 9.58L12.38 10.56C12.5083 10.6883 12.6717 10.7525 12.87 10.7525C13.0683 10.7525 13.2317 10.6883 13.36 10.56C13.4883 10.4317 13.5525 10.2683 13.5525 10.07C13.5525 9.87167 13.4883 9.70833 13.36 9.58L12.38 8.6L13.36 7.62C13.4883 7.49167 13.5525 7.32833 13.5525 7.13C13.5525 6.93167 13.4883 6.76833 13.36 6.64C13.2317 6.51167 13.0683 6.4475 12.87 6.4475C12.6717 6.4475 12.5083 6.51167 12.38 6.64L11.4 7.62L10.42 6.64C10.2917 6.51167 10.1283 6.4475 9.93 6.4475C9.73167 6.4475 9.56833 6.51167 9.44 6.64C9.31167 6.76833 9.2475 6.93167 9.2475 7.13C9.2475 7.32833 9.31167 7.49167 9.44 7.62L10.42 8.6L9.44 9.58C9.31167 9.70833 9.2475 9.87167 9.2475 10.07C9.2475 10.2683 9.31167 10.4317 9.44 10.56C9.56833 10.6883 9.73167 10.7525 9.93 10.7525C10.1283 10.7525 10.2917 10.6883 10.42 10.56Z" fill="#868C98"/>
</g>
</g>
</svg>
